<svg width="35" height="35" viewBox="0 0 50 50" fill="none" xmlns="http://www.w3.org/2000/svg">
<g id="typcn:shopping-cart">
<path id="Vector" d="M43.2417 11.1354C43.0457 10.91 42.8038 10.7292 42.5321 10.6053C42.2604 10.4813 41.9653 10.417 41.6667 10.4167H12.8771L12.4708 7.99167C12.39 7.50521 12.1391 7.06321 11.763 6.74429C11.3869 6.42538 10.9098 6.25023 10.4167 6.25H5.72917C5.17663 6.25 4.64673 6.46949 4.25603 6.86019C3.86533 7.25089 3.64584 7.7808 3.64584 8.33333C3.64584 8.88587 3.86533 9.41577 4.25603 9.80647C4.64673 10.1972 5.17663 10.4167 5.72917 10.4167H8.65209L12.5271 33.675L12.6208 33.9333L12.7333 34.2479L12.9833 34.6208L13.1813 34.8542L13.5833 35.125L13.8167 35.2604C14.059 35.3617 14.3187 35.4148 14.5813 35.4167H37.5C38.0525 35.4167 38.5824 35.1972 38.9731 34.8065C39.3638 34.4158 39.5833 33.8859 39.5833 33.3333C39.5833 32.7808 39.3638 32.2509 38.9731 31.8602C38.5824 31.4695 38.0525 31.25 37.5 31.25H16.3479L16.0021 29.1667H39.5833C40.0847 29.1667 40.5692 28.986 40.9481 28.6577C41.3269 28.3293 41.5746 27.8754 41.6458 27.3792L43.7292 12.7958C43.7714 12.5003 43.7497 12.1992 43.6656 11.9127C43.5815 11.6263 43.4369 11.3612 43.2417 11.1354ZM39.2646 14.5833L38.6708 18.75H31.25V14.5833H39.2646ZM29.1667 14.5833V18.75H22.9167V14.5833H29.1667ZM29.1667 20.8333V25H22.9167V20.8333H29.1667ZM20.8333 14.5833V18.75H14.5833L14.275 18.8125L13.5708 14.5833H20.8333ZM14.6125 20.8333H20.8333V25H15.3063L14.6125 20.8333ZM31.25 25V20.8333H38.3708L37.7771 25H31.25Z" fill="#FF6F95"/>
<path id="Vector_2" d="M17.7083 43.75C19.4342 43.75 20.8333 42.3509 20.8333 40.625C20.8333 38.8991 19.4342 37.5 17.7083 37.5C15.9824 37.5 14.5833 38.8991 14.5833 40.625C14.5833 42.3509 15.9824 43.75 17.7083 43.75Z" fill="#FF6F95"/>
<path id="Vector_3" d="M36.4583 43.75C38.1842 43.75 39.5833 42.3509 39.5833 40.625C39.5833 38.8991 38.1842 37.5 36.4583 37.5C34.7324 37.5 33.3333 38.8991 33.3333 40.625C33.3333 42.3509 34.7324 43.75 36.4583 43.75Z" fill="#FF6F95"/>
</g>
</svg>
