<?xml version="1.0" standalone="no"?>
<!DOCTYPE svg PUBLIC "-//W3C//DTD SVG 20010904//EN"
 "http://www.w3.org/TR/2001/REC-SVG-20010904/DTD/svg10.dtd">
<svg version="1.0" xmlns="http://www.w3.org/2000/svg"
 width="165px" height="165px" viewBox="0 0 128.000000 128.000000"
 preserveAspectRatio="xMidYMid meet">

<g transform="translate(0.000000,128.000000) scale(0.100000,-0.100000)"
fill="#000000" stroke="none">
<path d="M627 1274 c-4 -4 -7 -43 -7 -86 0 -72 2 -78 20 -78 20 0 21 5 18 82
-3 75 -12 100 -31 82z"/>
<path d="M314 1177 c-3 -10 9 -41 31 -76 41 -69 46 -73 65 -61 11 7 7 20 -21
65 -19 31 -42 63 -51 72 -16 14 -18 14 -24 0z"/>
<path d="M911 1117 c-43 -66 -50 -87 -28 -87 15 0 97 114 97 136 0 32 -30 10
-69 -49z"/>
<path d="M516 975 c-70 -29 -128 -82 -162 -148 -67 -131 -47 -267 56 -385 37
-41 54 -89 62 -172 l3 -25 165 0 165 0 3 30 c6 74 25 122 69 175 69 83 87 130
87 225 0 103 -26 165 -98 233 -96 91 -230 117 -350 67z m215 -26 c86 -21 167
-114 190 -216 22 -96 -6 -178 -96 -291 -24 -29 -38 -61 -46 -102 l-12 -60
-128 0 c-118 0 -129 2 -129 18 0 47 -33 123 -80 180 -50 63 -80 137 -80 197 0
50 27 128 60 173 71 99 186 135 321 101z"/>
<path d="M625 910 c-10 -17 5 -30 33 -30 73 -1 176 -88 188 -159 10 -59 15
-71 30 -71 22 0 17 68 -10 126 -29 62 -84 110 -150 129 -58 18 -82 19 -91 5z"/>
<path d="M110 956 c0 -13 119 -86 140 -86 6 0 10 8 10 18 0 10 -22 29 -59 50
-64 35 -91 40 -91 18z"/>
<path d="M1078 937 c-36 -20 -58 -39 -58 -49 0 -10 4 -18 10 -18 21 0 140 73
140 86 0 22 -30 16 -92 -19z"/>
<path d="M477 202 c-21 -23 -22 -46 -1 -66 13 -13 42 -16 163 -16 131 0 150 2
164 18 22 24 21 45 -1 65 -16 14 -43 17 -164 17 -128 0 -147 -2 -161 -18z
m303 -32 c0 -6 -53 -10 -140 -10 -87 0 -140 4 -140 10 0 6 53 10 140 10 87 0
140 -4 140 -10z"/>
<path d="M516 84 c-9 -8 -16 -24 -16 -34 0 -41 25 -50 140 -50 85 0 112 3 124
16 20 20 20 48 0 68 -23 23 -225 23 -248 0z m224 -34 c0 -6 -40 -10 -100 -10
-60 0 -100 4 -100 10 0 6 40 10 100 10 60 0 100 -4 100 -10z"/>
</g>
</svg>
