<svg width="50" height="50" viewBox="0 0 50 50" fill="none" xmlns="http://www.w3.org/2000/svg">
<g id="humbleicons:bulb">
<path id="Vector" d="M20.8333 37.5V37.2771C20.8333 35.6208 19.8 34.1771 18.5063 33.1437C16.8176 31.7971 15.5894 29.9588 14.9915 27.8834C14.3936 25.8079 14.4556 23.5979 15.1689 21.5593C15.8823 19.5206 17.2117 17.7542 18.9732 16.5043C20.7347 15.2545 22.8412 14.5831 25.001 14.5831C27.1609 14.5831 29.2673 15.2545 31.0288 16.5043C32.7903 17.7542 34.1198 19.5206 34.8331 21.5593C35.5465 23.5979 35.6085 25.8079 35.0106 27.8834C34.4127 29.9588 33.1845 31.7971 31.4958 33.1437C30.2 34.1792 29.1667 35.6208 29.1667 37.2771V37.5M20.8333 37.5V41.6667C20.8333 42.2192 21.0528 42.7491 21.4435 43.1398C21.8342 43.5305 22.3641 43.75 22.9167 43.75H27.0833C27.6359 43.75 28.1658 43.5305 28.5565 43.1398C28.9472 42.7491 29.1667 42.2192 29.1667 41.6667V37.5M20.8333 37.5H29.1667M41.6667 25H43.75M8.33333 25H6.25M25 8.33333V6.25M36.7854 13.2146L38.2583 11.7417M13.2167 13.2146L11.7417 11.7417M25 31.25V27.0833" stroke="black" stroke-width="4.16667" stroke-linecap="round" stroke-linejoin="round"/>
</g>
</svg>
