<svg width="50" height="50" viewBox="0 0 50 50" fill="none" xmlns="http://www.w3.org/2000/svg">
<g id="solar:lamp-linear">
<g id="Group">
<path id="Vector" d="M18.75 45.8333H31.25M25 45.8333V31.25" stroke="black" stroke-width="3.125" stroke-linecap="round"/>
<path id="Vector_2" d="M10.3375 15.5104C11.6062 10.6229 12.2396 8.17917 13.8792 6.56458C14.3536 6.09684 14.8823 5.68767 15.4542 5.34583C17.4271 4.16667 19.9521 4.16667 25 4.16667C30.0479 4.16667 32.5729 4.16667 34.5458 5.34583C35.1184 5.68753 35.6479 6.0967 36.1229 6.56458C37.7604 8.17917 38.3937 10.6229 39.6646 15.5104L39.8396 16.1854C41.5646 22.8292 42.4271 26.15 40.8604 28.4833C40.704 28.7162 40.5321 28.9382 40.3458 29.1479C38.4812 31.25 35.05 31.25 28.1875 31.25H21.8167C14.9542 31.25 11.5208 31.25 9.65624 29.1458C9.46874 28.9375 9.29999 28.7167 9.14374 28.4833C7.57708 26.15 8.43958 22.8292 10.1646 16.1854L10.3375 15.5104Z" stroke="black" stroke-width="3.125"/>
<path id="Vector_3" d="M36.4583 31.25V35.4167" stroke="black" stroke-width="3.125" stroke-linecap="round"/>
</g>
</g>
</svg>
