<svg width="50" height="50" viewBox="0 0 50 50" fill="none" xmlns="http://www.w3.org/2000/svg">
<g id="Mask">
<g id="Group">
<path id="Vector" d="M43 25.8034V14.8596C43 10.3213 43 8.05216 41.5074 6.81086C40.0149 5.56748 37.7328 5.94049 33.1686 6.68859L30.9413 7.05332C27.4791 7.61905 25.748 7.90296 24 7.90296C22.252 7.90296 20.5209 7.61905 17.0587 7.05332L14.8336 6.68859C10.2693 5.94257 7.98511 5.56955 6.49467 6.81086C5 8.05216 5 10.3213 5 14.8596V25.8034C5 37.1803 13.949 42.703 19.5646 45.0467C21.0867 45.6829 21.8488 46 24 46C26.1533 46 26.9133 45.6829 28.4354 45.0467C34.051 42.703 43 37.1803 43 25.8034Z" stroke="black" stroke-width="3.125"/>
<path id="Vector_2" d="M12 20C12.6085 18.834 14.2519 18 16.1818 18C18.1117 18 19.7552 18.834 20.3636 20M26.6364 20C27.2448 18.834 28.8883 18 30.8182 18C32.7481 18 34.3915 18.834 35 20M16.1818 30C16.1818 30 18.3773 32 23.5 32C28.6227 32 30.8182 30 30.8182 30" stroke="black" stroke-width="3.125" stroke-linecap="round"/>
</g>
</g>
</svg>
