<svg width="50" height="50" viewBox="0 0 50 50" fill="none" xmlns="http://www.w3.org/2000/svg">
<g id="solar:sleeping-circle-linear">
<g id="Group">
<path id="Vector" d="M45.8334 25C45.8334 36.5062 36.5063 45.8333 25 45.8333C13.4938 45.8333 4.16669 36.5062 4.16669 25C4.16669 13.4937 13.4938 4.16666 25 4.16666" stroke="black" stroke-width="3.125" stroke-linecap="round"/>
<path id="Vector_2" d="M13.5417 22.9167C14.7229 24.2292 16.1584 25 17.7084 25C19.2584 25 20.6938 24.2292 21.875 22.9167M28.125 22.9167C29.3063 24.2292 30.7417 25 32.2917 25C33.8417 25 35.2771 24.2292 36.4584 22.9167" stroke="black" stroke-width="3.125" stroke-linecap="round"/>
<path id="Vector_3" d="M27.0834 33.3333C27.0834 33.8859 26.8639 34.4158 26.4732 34.8065C26.0825 35.1972 25.5526 35.4167 25 35.4167C24.4475 35.4167 23.9176 35.1972 23.5269 34.8065C23.1362 34.4158 22.9167 33.8859 22.9167 33.3333C22.9167 32.7808 23.1362 32.2509 23.5269 31.8602C23.9176 31.4695 24.4475 31.25 25 31.25C25.5526 31.25 26.0825 31.4695 26.4732 31.8602C26.8639 32.2509 27.0834 32.7808 27.0834 33.3333Z" fill="black"/>
<path id="Vector_4" d="M35.4167 8.33333L42.6333 4.16666L39.5833 15.55L46.8 11.3833M29.2667 11.4583L32.875 13.5417L27.1833 15.0667L30.7917 17.15" stroke="black" stroke-width="3.125" stroke-linecap="round" stroke-linejoin="round"/>
</g>
</g>
</svg>
