<svg width="50" height="50" viewBox="0 0 50 50" fill="none" xmlns="http://www.w3.org/2000/svg">
<g id="icon-park-outline:relieved-face">
<g id="Group">
<path id="Vector" d="M25 45.8333C36.5063 45.8333 45.8334 36.5063 45.8334 25C45.8334 13.4938 36.5063 4.16667 25 4.16667C13.4938 4.16667 4.16669 13.4938 4.16669 25C4.16669 36.5063 13.4938 45.8333 25 45.8333Z" stroke="black" stroke-width="4.16667" stroke-linejoin="round"/>
<path id="Vector_2" d="M32.2917 32.2917C32.2917 32.2917 30.2084 36.4583 25 36.4583C19.7917 36.4583 17.7084 32.2917 17.7084 32.2917M20.8334 19.7917C20.8334 19.7917 19.7917 21.875 17.7084 21.875C15.625 21.875 14.5834 19.7917 14.5834 19.7917M35.4167 19.7917C35.4167 19.7917 34.375 21.875 32.2917 21.875C30.2084 21.875 29.1667 19.7917 29.1667 19.7917" stroke="black" stroke-width="4.16667" stroke-linecap="round" stroke-linejoin="round"/>
</g>
</g>
</svg>
