<svg width="50" height="50" viewBox="0 0 50 50" fill="none" xmlns="http://www.w3.org/2000/svg">
<g id="solar:star-line-duotone">
<path id="Vector" d="M19.0688 11.2667C21.7084 6.53333 23.0271 4.16667 25 4.16667C26.9729 4.16667 28.2917 6.53333 30.9313 11.2667L31.6146 12.4917C32.3646 13.8375 32.7396 14.5104 33.3229 14.9542C33.9063 15.3979 34.6354 15.5625 36.0938 15.8917L37.4188 16.1917C42.5438 17.3521 45.1042 17.9313 45.7146 19.8917C46.3229 21.85 44.5771 23.8938 41.0834 27.9792L40.1792 29.0354C39.1875 30.1958 38.6896 30.7771 38.4667 31.4937C38.2438 32.2125 38.3188 32.9875 38.4688 34.5354L38.6063 35.9458C39.1334 41.3979 39.3979 44.1229 37.8021 45.3333C36.2063 46.5458 33.8063 45.4396 29.0104 43.2312L27.7667 42.6604C26.4042 42.0312 25.7229 41.7187 25 41.7187C24.2771 41.7187 23.5959 42.0312 22.2313 42.6604L20.9917 43.2312C16.1938 45.4396 13.7938 46.5437 12.2 45.3354C10.6021 44.1229 10.8667 41.3979 11.3938 35.9458L11.5313 34.5375C11.6813 32.9875 11.7563 32.2125 11.5313 31.4958C11.3104 30.7771 10.8125 30.1958 9.82086 29.0375L8.91669 27.9792C5.42294 23.8958 3.6771 21.8521 4.28544 19.8917C4.89585 17.9313 7.45835 17.35 12.5834 16.1917L13.9084 15.8917C15.3646 15.5625 16.0917 15.3979 16.6771 14.9542C17.2604 14.5104 17.6354 13.8375 18.3854 12.4917L19.0688 11.2667Z" stroke="black" stroke-width="3.125"/>
</g>
</svg>
